<?xml version="1.0" encoding="utf-8"?>
<!-- Generator: Adobe Illustrator 24.1.0, SVG Export Plug-In . SVG Version: 6.00 Build 0)  -->
<svg version="1.1" id="Layer_1" xmlns="http://www.w3.org/2000/svg" xmlns:xlink="http://www.w3.org/1999/xlink" x="0px" y="0px"
	 viewBox="0 0 153.3 107.7" style="enable-background:new 0 0 153.3 107.7;" xml:space="preserve">
<style type="text/css">
	.st0{opacity:0.1;fill:#2B337D;enable-background:new    ;}
	.st1{enable-background:new    ;}
	.st2{fill:#FEC028;}
	.st3{opacity:0.2;}
	.st4{fill:#273B8F;}
</style>
<g id="DESIGNED_BY_FREEPIK">
</g>
<rect x="37.9" y="15.4" class="st0" width="76.9" height="38.6"/>
<g class="st1">
	<path class="st2" d="M64.7,43v-4h-7.3V37l7.7-10.9h1.7V37h2.3v1.9h-2.3v4H64.7z M64.7,37v-7.6L59.4,37H64.7z"/>
	<path class="st2" d="M71.2,34.7c0-2,0.2-3.6,0.6-4.8c0.4-1.2,1-2.1,1.8-2.8c0.8-0.7,1.8-1,3.1-1c0.9,0,1.7,0.2,2.4,0.5
		c0.7,0.4,1.2,0.9,1.7,1.6c0.4,0.7,0.8,1.5,1,2.5c0.3,1,0.4,2.3,0.4,4c0,2-0.2,3.6-0.6,4.8c-0.4,1.2-1,2.2-1.8,2.8s-1.8,1-3.1,1
		c-1.6,0-2.9-0.6-3.8-1.7C71.7,40.1,71.2,37.8,71.2,34.7z M73.3,34.7c0,2.8,0.3,4.6,1,5.5s1.4,1.4,2.4,1.4c0.9,0,1.7-0.5,2.4-1.4
		s1-2.8,1-5.5c0-2.8-0.3-4.6-1-5.5c-0.6-0.9-1.5-1.4-2.4-1.4c-0.9,0-1.7,0.4-2.3,1.2C73.7,30,73.3,31.9,73.3,34.7z"/>
	<path class="st2" d="M90.9,43v-4h-7.3V37l7.7-10.9h1.7V37h2.3v1.9h-2.3v4H90.9z M90.9,37v-7.6L85.6,37H90.9z"/>
</g>
<g class="st3">
	<path class="st4" d="M76.7,60.5c0.1,0.1,0.1,0.1,0.2,0.1c0.1,0,0.1,0,0.2,0c0.1,0,0.3-0.1,0.4-0.2c0,0,0.1-0.1,0.1-0.2
		c0-0.1,0-0.1,0-0.2c0,0,0-0.1,0-0.1c0,0,0-0.1,0-0.1c0,0,0-0.1,0-0.1c0,0,0-0.1-0.1-0.1c0,0-0.1,0-0.1-0.1c0,0-0.1,0-0.1,0
		c0,0-0.1,0-0.1,0c-0.2,0-0.4,0-0.5,0.1c0,0,0,0.1-0.1,0.1c0,0,0,0.1,0,0.1c0,0,0,0.1,0,0.1s0,0.1,0,0.1c0,0.1,0,0.1,0,0.2
		C76.7,60.4,76.7,60.5,76.7,60.5z"/>
	<path class="st4" d="M151.3,72.1h-9.6c0.6-2.1,2.5-8.8,2.5-13.2c0-0.3-0.2-0.5-0.5-0.5h-2.1l1-11.4c0-0.3-0.2-0.5-0.4-0.5
		c-0.3,0-0.5,0.1-0.6,0.4l-2.8,9.2l-0.2-4.9c0-0.3-0.2-0.5-0.5-0.5c-0.3,0-0.5,0.1-0.6,0.4l-1.6,6.5l-4.2-8.5
		c-0.1-0.2-0.4-0.3-0.6-0.3c-0.2,0.1-0.4,0.3-0.4,0.6l1.4,9.2h-2.6c-0.3,0-0.5,0.2-0.5,0.5c0,4.4,1.8,11,2.5,13.2h-12.2
		c-0.3-2.6-2.8-4.7-5.7-4.7c-3,0-5.5,2.1-5.7,4.7H88.7c-3-1.5-4.8-4.6-4.8-7.9v-0.6h31.8c2.1,0,3.8-1.7,3.8-3.8V15.4
		c0-2.1-1.7-3.8-3.8-3.8h-77c-2.1,0-3.8,1.7-3.8,3.8v44.4c0,2.1,1.7,3.8,3.8,3.8h31.8v0.6c0,3.4-1.8,6.4-4.8,7.9H32.1
		c0,0,0-0.1,0-0.1l-4.3-16.2c0-0.1-0.1-0.3-0.2-0.3c-0.1-0.1-0.3-0.1-0.4-0.1l-1.4,0.4c-0.1-0.2-0.3-0.4-0.5-0.4h-2.1
		c-0.3,0-0.5,0.2-0.5,0.5v0.9h-3.4v-6.6c0-0.3-0.2-0.5-0.5-0.5h-3.6v-1.5c0-0.3-0.2-0.5-0.5-0.5h-4.1c-0.3,0-0.5,0.2-0.5,0.5v24.1
		H2.9c-0.3,0-0.5,0.2-0.5,0.5c0,0.3,0.2,0.5,0.5,0.5h148.4c0.3,0,0.5-0.2,0.5-0.5C151.8,72.3,151.6,72.1,151.3,72.1z M140.5,58.4
		h-1.4l2-6.6L140.5,58.4z M137.6,54.6l0.2,3.8h-1.1L137.6,54.6z M132.3,52.4l2.9,6h-2L132.3,52.4z M143.1,59.5c0,0.5,0,0.9-0.1,1.4
		h-12.8c-0.1-0.5-0.1-1-0.1-1.4H143.1z M113.1,68.5v0.9c0,0.3,0.2,0.5,0.5,0.5c0.3,0,0.5-0.2,0.5-0.5v-0.9c2.2,0.2,3.9,1.7,4.1,3.6
		H109C109.2,70.2,110.9,68.7,113.1,68.5z M38.6,12.7h77c1.5,0,2.7,1.2,2.7,2.7v41.5H35.9V15.4C35.9,13.9,37.1,12.7,38.6,12.7z
		 M35.9,59.8V58h82.4v1.8c0,1.5-1.2,2.7-2.7,2.7h-77C37.1,62.5,35.9,61.3,35.9,59.8z M23.8,58.6h1v0.9h-1V58.6z M25.9,60.5l3,11.6
		h-3V60.5z M27,56.5l4,15.2L30,72l-4-15.2L27,56.5z M23.8,56.4h1v1.2h-1V56.4z M22.8,57.8v3.2h-3.4v-3.2H22.8z M14.2,56.7h-3.1v-4
		h3.1V56.7z M11.1,57.8h3.1v12.5h-3.1V57.8z M15.2,60.5h3.1v6.7h-3.1C15.2,67.3,15.2,60.5,15.2,60.5z M18.3,50.6v8.9h-3.1v-8.9
		C15.2,50.6,18.3,50.6,18.3,50.6z M14.2,48.6v3.1h-3.1v-3.1H14.2z M11.1,71.4h3.1v0.8h-3.1V71.4z M15.2,68.3h3.1v3.8h-3.1
		C15.2,72.1,15.2,68.3,15.2,68.3z M19.4,62h3.4v10.1h-3.4V62z M23.8,72.1V60.5h1v11.6L23.8,72.1L23.8,72.1z M67.5,72.1
		c2.4-1.9,3.9-4.8,3.9-7.9v-0.6h11.3v0.6c0,3.2,1.5,6.1,3.9,7.9H67.5z M132.6,72.1c-0.4-1.3-1.7-6.1-2.3-10.2h12.6
		c-0.5,4.1-1.9,8.8-2.3,10.2H132.6z"/>
</g>
<g>
	<path class="st2" d="M6.1,91.4l-1.7,0l0-0.6l4.2-0.1l0,0.6l-1.8,0l0.1,5.1l-0.7,0L6.1,91.4z"/>
	<path class="st2" d="M10.1,90.8l0,2.4l2.8,0l0-2.4l0.7,0l0.1,5.7l-0.7,0l0-2.7l-2.8,0l0,2.7l-0.7,0l-0.1-5.7L10.1,90.8z"/>
	<path class="st2" d="M18.1,93.8l-2.2,0l0,2.1l2.5,0l0,0.6l-3.2,0.1l-0.1-5.7l3.1-0.1l0,0.6l-2.4,0l0,1.8l2.2,0L18.1,93.8z"/>
	<path class="st2" d="M21.5,90.9c0.4-0.1,0.9-0.1,1.4-0.1c0.8,0,1.3,0.1,1.7,0.4c0.3,0.2,0.5,0.6,0.5,1.1c0,0.8-0.5,1.3-1.1,1.5l0,0
		c0.4,0.1,0.7,0.5,0.9,1.1c0.2,0.8,0.3,1.3,0.5,1.6l-0.8,0c-0.1-0.2-0.2-0.7-0.4-1.4c-0.2-0.8-0.5-1.1-1.2-1.1l-0.7,0l0,2.5l-0.7,0
		L21.5,90.9z M22.2,93.5l0.8,0c0.8,0,1.3-0.5,1.3-1.1c0-0.7-0.6-1.1-1.3-1c-0.4,0-0.6,0-0.7,0.1L22.2,93.5z"/>
	<path class="st2" d="M29.2,93.8l-2.2,0l0,2.1l2.5,0l0,0.6l-3.2,0.1l-0.1-5.7l3.1-0.1l0,0.6l-2.4,0l0,1.8l2.2,0L29.2,93.8z"/>
	<path class="st2" d="M35.4,97.3c-0.8-0.2-1.5-0.4-2.2-0.6c-0.1,0-0.2-0.1-0.3-0.1c-1.4,0-2.5-1-2.6-2.9c0-1.8,1.1-3,2.6-3.1
		c1.6,0,2.6,1.2,2.6,2.9c0,1.5-0.6,2.4-1.6,2.8l0,0c0.6,0.1,1.2,0.3,1.7,0.3L35.4,97.3z M34.7,93.6c0-1.1-0.6-2.3-1.9-2.3
		c-1.2,0-1.8,1.2-1.8,2.4c0,1.2,0.7,2.3,1.9,2.3C34.1,96,34.7,94.9,34.7,93.6z"/>
	<path class="st2" d="M37.3,90.8l0.1,3.4c0,1.3,0.6,1.8,1.4,1.8c0.9,0,1.4-0.6,1.4-1.9l-0.1-3.4l0.7,0l0.1,3.3
		c0,1.8-0.9,2.5-2.1,2.5c-1.2,0-2.1-0.6-2.1-2.4l-0.1-3.4L37.3,90.8z"/>
	<path class="st2" d="M45.3,93.8l-2.2,0l0,2.1l2.5,0l0,0.6l-3.2,0.1l-0.1-5.7l3.1-0.1l0,0.6l-2.4,0l0,1.8l2.2,0L45.3,93.8z"/>
	<path class="st2" d="M46.6,95.6c0.3,0.2,0.8,0.4,1.3,0.4c0.8,0,1.2-0.4,1.2-1c0-0.5-0.3-0.8-1.1-1.1c-0.9-0.3-1.5-0.8-1.5-1.6
		c0-0.9,0.7-1.6,1.8-1.6c0.6,0,1,0.1,1.3,0.3l-0.2,0.6c-0.2-0.1-0.6-0.3-1.1-0.3c-0.8,0-1.1,0.5-1.1,0.9c0,0.5,0.4,0.8,1.2,1.1
		c1,0.4,1.5,0.8,1.5,1.7c0,0.9-0.6,1.7-2,1.7c-0.6,0-1.2-0.1-1.5-0.3L46.6,95.6z"/>
	<path class="st2" d="M52.1,91.4l-1.7,0l0-0.6l4.2-0.1l0,0.6l-1.8,0l0.1,5.1l-0.7,0L52.1,91.4z"/>
	<path class="st2" d="M58.4,93.8l-2.2,0l0,2.1l2.5,0l0,0.6l-3.2,0.1l-0.1-5.7l3.1-0.1l0,0.6l-2.4,0l0,1.8l2.2,0L58.4,93.8z"/>
	<path class="st2" d="M59.7,90.9c0.4-0.1,1-0.1,1.6-0.1c1.1,0,1.8,0.2,2.3,0.7c0.5,0.5,0.8,1.1,0.8,2c0,0.9-0.3,1.7-0.8,2.2
		c-0.5,0.5-1.4,0.8-2.5,0.9c-0.5,0-1,0-1.3,0L59.7,90.9z M60.6,96c0.2,0,0.5,0,0.7,0c1.6,0,2.4-0.9,2.4-2.5c0-1.4-0.8-2.2-2.4-2.2
		c-0.4,0-0.7,0-0.9,0.1L60.6,96z"/>
	<path class="st2" d="M67.5,90.9c0.4-0.1,0.8-0.1,1.4-0.1c0.7,0,1.3,0.1,1.6,0.4c0.3,0.3,0.5,0.7,0.5,1.2c0,0.5-0.1,0.9-0.4,1.2
		c-0.4,0.4-1,0.6-1.7,0.7c-0.2,0-0.4,0-0.6,0l0,2.3l-0.7,0L67.5,90.9z M68.3,93.6c0.2,0,0.4,0.1,0.6,0c0.9,0,1.4-0.5,1.4-1.2
		c0-0.8-0.6-1.1-1.4-1.1c-0.3,0-0.6,0-0.7,0.1L68.3,93.6z"/>
	<path class="st2" d="M73.2,94.7l-0.6,1.8l-0.8,0l1.8-5.8l0.9,0l2.1,5.7l-0.8,0l-0.6-1.8L73.2,94.7z M75.1,94.1l-0.6-1.6
		c-0.1-0.4-0.2-0.7-0.3-1h0c-0.1,0.3-0.2,0.7-0.3,1l-0.5,1.7L75.1,94.1z"/>
	<path class="st2" d="M82.1,96.2c-0.3,0.1-1,0.3-1.8,0.3c-0.9,0-1.6-0.2-2.2-0.7c-0.5-0.5-0.8-1.2-0.8-2.1c0-1.7,1.1-3,3-3
		c0.7,0,1.2,0.1,1.4,0.2l-0.2,0.6c-0.3-0.1-0.7-0.2-1.3-0.2c-1.4,0-2.3,0.9-2.3,2.3c0,1.5,0.9,2.3,2.3,2.3c0.5,0,0.8-0.1,1-0.2
		l0-1.7l-1.2,0l0-0.6l1.9,0L82.1,96.2z"/>
	<path class="st2" d="M86.3,93.8l-2.2,0l0,2.1l2.5,0l0,0.6l-3.2,0.1l-0.1-5.7l3.1-0.1l0,0.6l-2.4,0l0,1.8l2.2,0L86.3,93.8z"/>
	<path class="st2" d="M89.6,90.9c0.4-0.1,1-0.1,1.6-0.1c1.1,0,1.8,0.2,2.3,0.7c0.5,0.5,0.8,1.1,0.8,2c0,0.9-0.3,1.7-0.8,2.2
		c-0.5,0.5-1.4,0.8-2.5,0.9c-0.5,0-1,0-1.3,0L89.6,90.9z M90.4,96c0.2,0,0.5,0,0.7,0c1.6,0,2.4-0.9,2.4-2.5c0-1.4-0.8-2.2-2.4-2.2
		c-0.4,0-0.7,0-0.9,0.1L90.4,96z"/>
	<path class="st2" d="M100.4,93.5c0,2-1.1,3-2.6,3.1c-1.5,0-2.6-1.1-2.6-2.9c0-1.8,1.1-3,2.6-3.1C99.3,90.7,100.4,91.8,100.4,93.5z
		 M95.9,93.7c0,1.2,0.7,2.3,1.9,2.3c1.2,0,1.8-1.1,1.8-2.4c0-1.1-0.6-2.3-1.9-2.3C96.5,91.3,95.9,92.5,95.9,93.7z"/>
	<path class="st2" d="M104.5,93.8l-2.2,0l0,2.1l2.5,0l0,0.6l-3.2,0.1l-0.1-5.7l3.1-0.1l0,0.6l-2.4,0l0,1.8l2.2,0L104.5,93.8z"/>
	<path class="st2" d="M105.8,95.6c0.3,0.2,0.8,0.4,1.3,0.4c0.8,0,1.2-0.4,1.2-1c0-0.5-0.3-0.8-1.1-1.1c-0.9-0.3-1.5-0.8-1.5-1.6
		c0-0.9,0.7-1.6,1.8-1.6c0.6,0,1,0.1,1.3,0.3l-0.2,0.6c-0.2-0.1-0.6-0.3-1.1-0.3c-0.8,0-1.1,0.5-1.1,0.9c0,0.5,0.4,0.8,1.2,1.1
		c1,0.4,1.5,0.8,1.5,1.7c0,0.9-0.6,1.7-2,1.7c-0.6,0-1.2-0.1-1.5-0.3L105.8,95.6z"/>
	<path class="st2" d="M112.3,96.6l-0.1-5.7l0.8,0l1.9,2.9c0.4,0.7,0.8,1.3,1.1,1.8l0,0c-0.1-0.8-0.1-1.5-0.1-2.4l0-2.4l0.7,0
		l0.1,5.7l-0.7,0l-1.9-2.9c-0.4-0.6-0.8-1.3-1.1-1.9l0,0c0.1,0.7,0.1,1.4,0.1,2.4l0,2.4L112.3,96.6z"/>
	<path class="st2" d="M122.9,93.5c0,2-1.1,3-2.6,3.1c-1.5,0-2.6-1.1-2.6-2.9c0-1.8,1.1-3,2.6-3.1C121.8,90.7,122.9,91.8,122.9,93.5z
		 M118.4,93.7c0,1.2,0.7,2.3,1.9,2.3c1.2,0,1.8-1.1,1.8-2.4c0-1.1-0.6-2.3-1.9-2.3C119,91.3,118.4,92.5,118.4,93.7z"/>
	<path class="st2" d="M125.1,91.4l-1.7,0l0-0.6l4.2-0.1l0,0.6l-1.8,0l0.1,5.1l-0.7,0L125.1,91.4z"/>
	<path class="st2" d="M133.4,93.8l-2.2,0l0,2.1l2.5,0l0,0.6l-3.2,0.1l-0.1-5.7l3.1-0.1l0,0.6l-2.4,0l0,1.8l2.2,0L133.4,93.8z"/>
	<path class="st2" d="M137.9,96.5l-0.8-1.3c-0.3-0.5-0.5-0.8-0.7-1.1h0c-0.2,0.3-0.3,0.6-0.6,1.2l-0.7,1.3l-0.8,0l1.7-2.9l-1.7-2.8
		l0.9,0l0.8,1.3c0.2,0.4,0.4,0.7,0.5,1l0,0c0.2-0.3,0.3-0.6,0.5-1l0.8-1.4l0.8,0l-1.7,2.8l1.8,2.9L137.9,96.5z"/>
	<path class="st2" d="M140.5,90.8l0.1,5.7l-0.7,0l-0.1-5.7L140.5,90.8z"/>
	<path class="st2" d="M141.9,95.6c0.3,0.2,0.8,0.4,1.3,0.4c0.8,0,1.2-0.4,1.2-1c0-0.5-0.3-0.8-1.1-1.1c-0.9-0.3-1.5-0.8-1.5-1.6
		c0-0.9,0.7-1.6,1.8-1.6c0.6,0,1,0.1,1.3,0.3l-0.2,0.6c-0.2-0.1-0.6-0.3-1.1-0.3c-0.8,0-1.1,0.5-1.1,0.9c0,0.5,0.4,0.8,1.2,1.1
		c1,0.4,1.5,0.8,1.5,1.7c0,0.9-0.6,1.7-2,1.7c-0.6,0-1.2-0.1-1.5-0.3L141.9,95.6z"/>
	<path class="st2" d="M147.4,91.4l-1.7,0l0-0.6l4.2-0.1l0,0.6l-1.8,0l0.1,5.1l-0.7,0L147.4,91.4z"/>
</g>
</svg>
